<svg width="122" height="24" viewBox="0 0 122 24" fill="none" xmlns="http://www.w3.org/2000/svg">
<path d="M4.19118 9.05271C7.22799 3.74074 8.7464 1.08476 10.8078 0.346199C12.0962 -0.1154 13.5038 -0.1154 14.7922 0.346199C16.8536 1.08476 18.372 3.74074 21.4088 9.05271C24.4262 14.3306 25.9348 16.9696 25.5374 19.1249C25.2889 20.4722 24.5862 21.6924 23.5474 22.58C21.8857 24 18.8571 24 12.8 24C6.74286 24 3.71429 24 2.0526 22.58C1.01383 21.6924 0.31108 20.4722 0.0626162 19.1249C-0.334846 16.9696 1.17383 14.3306 4.19118 9.05271Z" fill="#FA5B30"/>
<path d="M17.0412 16.7303C15.5741 19.0821 14.8405 20.2581 13.8668 20.6125C13.1797 20.8625 12.4203 20.8625 11.7332 20.6125C10.7595 20.2581 10.0259 19.0821 8.55882 16.7303C7.0298 14.2792 6.2653 13.0537 6.41954 12.0474C6.52826 11.3383 6.91156 10.6939 7.49366 10.2417C8.3196 9.59998 9.81307 9.59998 12.8 9.59998C15.787 9.59998 17.2804 9.59998 18.1064 10.2417C18.6885 10.6939 19.0718 11.3383 19.1805 12.0474C19.3347 13.0537 18.5702 14.2792 17.0412 16.7303Z" fill="white"/>
<path fill-rule="evenodd" clip-rule="evenodd" d="M59.8063 8.24858C60.2547 8.24858 60.6382 8.10425 60.9568 7.81559C61.2754 7.52693 61.4347 7.18031 61.4347 6.77573C61.4347 6.37569 61.2754 6.03135 60.9568 5.74268C60.6382 5.45402 60.2523 5.30969 59.7992 5.30969C59.3555 5.30969 58.9732 5.45402 58.6522 5.74268C58.3313 6.03135 58.1708 6.37569 58.1708 6.77573C58.1708 7.18031 58.3313 7.52693 58.6522 7.81559C58.9732 8.10425 59.3579 8.24858 59.8063 8.24858ZM38.6339 20.0621C38.2233 20.2008 37.7489 20.2701 37.2108 20.2701C36.517 20.2701 35.8987 20.153 35.3558 19.9189C34.813 19.6848 34.3847 19.3371 34.0708 18.8756C33.7569 18.4142 33.6 17.8381 33.6 17.1471C33.6 16.5652 33.7109 16.0765 33.9327 15.681C34.1546 15.2856 34.4567 14.9674 34.839 14.7264C35.2213 14.4855 35.6567 14.3037 36.1453 14.1809C36.6338 14.0582 37.1471 13.9718 37.6852 13.9218C38.3177 13.8582 38.8275 13.7979 39.2145 13.7411C39.6016 13.6843 39.8824 13.5991 40.057 13.4854C40.2317 13.3718 40.319 13.2036 40.319 12.9808V12.9399C40.319 12.508 40.1786 12.1739 39.8977 11.9375C39.6169 11.7012 39.2192 11.583 38.7047 11.583C38.1619 11.583 37.73 11.6977 37.4091 11.9273C37.0881 12.1569 36.8757 12.4444 36.7719 12.7899L33.9823 12.5717C34.1239 11.9353 34.4024 11.3841 34.8178 10.9181C35.2331 10.4522 35.77 10.0931 36.4285 9.84077C37.0869 9.58847 37.8504 9.46233 38.7189 9.46233C39.3231 9.46233 39.9025 9.53051 40.4571 9.66689C41.0117 9.80326 41.5049 10.0146 41.9368 10.301C42.3687 10.5874 42.7097 10.9545 42.9599 11.4023C43.2101 11.85 43.3351 12.3853 43.3351 13.0081V20.0723H40.4748V18.6199H40.3898C40.2152 18.9472 39.9815 19.2348 39.6889 19.4825C39.3962 19.7303 39.0446 19.9235 38.6339 20.0621ZM36.9312 17.9551C37.2309 18.1619 37.612 18.2654 38.0746 18.2654C38.5183 18.2654 38.9101 18.1801 39.2499 18.0097C39.5897 17.8392 39.8564 17.6085 40.05 17.3176C40.2435 17.0266 40.3402 16.697 40.3402 16.3288V15.2174C40.2458 15.2765 40.1172 15.3299 39.9544 15.3776C39.7915 15.4253 39.6086 15.4685 39.4057 15.5072C39.2027 15.5458 38.9997 15.5799 38.7968 15.6095C38.5938 15.639 38.4097 15.6651 38.2445 15.6879C37.8905 15.7379 37.5814 15.8174 37.317 15.9265C37.0527 16.0356 36.8474 16.1822 36.7011 16.3663C36.5547 16.5504 36.4816 16.7789 36.4816 17.0516C36.4816 17.4471 36.6314 17.7483 36.9312 17.9551ZM48.6919 24V18.3949H48.784C48.9209 18.6859 49.1191 18.9734 49.3787 19.2575C49.6383 19.5416 49.9723 19.7769 50.3805 19.9632C50.7888 20.1496 51.2856 20.2428 51.8709 20.2428C52.6969 20.2428 53.4439 20.0371 54.1118 19.6257C54.7797 19.2143 55.3083 18.6074 55.6977 17.8051C56.0871 17.0028 56.2818 16.0174 56.2818 14.8492C56.2818 13.6491 56.0812 12.6501 55.68 11.8523C55.2788 11.0545 54.7431 10.4567 54.0728 10.059C53.4026 9.66121 52.671 9.46233 51.878 9.46233C51.2691 9.46233 50.7605 9.5612 50.3522 9.75894C49.9439 9.95669 49.6135 10.2022 49.361 10.4954C49.1085 10.7886 48.9161 11.0761 48.784 11.3579H48.6495V9.5987H45.6758V24H48.6919ZM49.6761 17.546C50.0159 17.8028 50.4289 17.9312 50.9151 17.9312C51.406 17.9312 51.8213 17.8006 52.1612 17.5392C52.501 17.2778 52.7595 16.9141 52.9365 16.4482C53.1135 15.9822 53.202 15.4447 53.202 14.8355C53.202 14.2309 53.1146 13.6991 52.94 13.2399C52.7654 12.7808 52.5081 12.4217 52.1683 12.1626C51.8284 11.9034 51.4107 11.7739 50.9151 11.7739C50.4242 11.7739 50.01 11.8989 49.6725 12.1489C49.335 12.3989 49.0766 12.7535 48.8973 13.2127C48.7179 13.6718 48.6282 14.2127 48.6282 14.8355C48.6282 15.4583 48.7179 16.0015 48.8973 16.4652C49.0766 16.9289 49.3362 17.2891 49.6761 17.546ZM58.2841 9.5987H61.3002V20.0723H58.2841V9.5987ZM65.4732 20.2496C65.78 20.2496 66.0608 20.1758 66.3157 20.028C66.5706 19.8803 66.7771 19.6825 66.9352 19.4348C67.0933 19.187 67.1724 18.9132 67.1724 18.6131C67.1724 18.1676 67.0025 17.7858 66.6626 17.4676C66.3228 17.1494 65.9263 16.9903 65.4732 16.9903C65.0059 16.9903 64.6059 17.1494 64.2731 17.4676C63.9403 17.7858 63.7739 18.1676 63.7739 18.6131C63.7739 19.0632 63.9403 19.4484 64.2731 19.7689C64.6059 20.0894 65.0059 20.2496 65.4732 20.2496ZM76.5918 9.5987H79.7849L75.9829 20.0723H72.5844L68.7824 9.5987H71.9684L74.227 17.0925H74.3403L76.5918 9.5987ZM82.8477 8.24858C83.2961 8.24858 83.6796 8.10425 83.9982 7.81559C84.3169 7.52693 84.4762 7.18031 84.4762 6.77573C84.4762 6.37569 84.3169 6.03135 83.9982 5.74268C83.6796 5.45402 83.2938 5.30969 82.8406 5.30969C82.397 5.30969 82.0146 5.45402 81.6937 5.74268C81.3727 6.03135 81.2122 6.37569 81.2122 6.77573C81.2122 7.18031 81.3727 7.52693 81.6937 7.81559C82.0146 8.10425 82.3993 8.24858 82.8477 8.24858ZM81.3255 9.5987H84.3416V20.0723H81.3255V9.5987ZM90.759 20.2428C91.3443 20.2428 91.8411 20.1496 92.2494 19.9632C92.6577 19.7769 92.9904 19.5416 93.2477 19.2575C93.5049 18.9734 93.7043 18.6859 93.846 18.3949H93.9734V20.0723H96.947V6.10749H93.938V11.3579H93.846C93.7138 11.0761 93.5214 10.7886 93.2689 10.4954C93.0164 10.2022 92.686 9.95669 92.2777 9.75894C91.8694 9.5612 91.3608 9.46233 90.7519 9.46233C89.9542 9.46233 89.2215 9.66121 88.5536 10.059C87.8857 10.4567 87.3511 11.0545 86.9499 11.8523C86.5487 12.6501 86.3481 13.6491 86.3481 14.8492C86.3481 16.0174 86.5428 17.0028 86.9322 17.8051C87.3216 18.6074 87.8503 19.2143 88.5182 19.6257C89.1861 20.0371 89.933 20.2428 90.759 20.2428ZM90.4652 17.5392C90.8027 17.8006 91.2192 17.9312 91.7148 17.9312C92.201 17.9312 92.6128 17.8028 92.9503 17.546C93.2878 17.2891 93.5474 16.9289 93.7291 16.4652C93.9109 16.0015 94.0017 15.4583 94.0017 14.8355C94.0017 14.2127 93.912 13.6718 93.7327 13.2127C93.5533 12.7535 93.2937 12.3989 92.9539 12.1489C92.614 11.8989 92.201 11.7739 91.7148 11.7739C91.2192 11.7739 90.8015 11.9034 90.4617 12.1626C90.1218 12.4217 89.8646 12.7808 89.6899 13.2399C89.5153 13.6991 89.428 14.2309 89.428 14.8355C89.428 15.4447 89.5165 15.9822 89.6935 16.4482C89.8705 16.9141 90.1277 17.2778 90.4652 17.5392ZM104.373 20.2769C105.269 20.2769 106.061 20.1439 106.748 19.878C107.435 19.6121 107.996 19.2393 108.433 18.7597C108.87 18.2801 109.159 17.7176 109.3 17.0721L106.511 16.8948C106.407 17.1585 106.256 17.3812 106.058 17.563C105.859 17.7449 105.621 17.8812 105.343 17.9722C105.064 18.0631 104.757 18.1085 104.422 18.1085C103.917 18.1085 103.481 18.0063 103.112 17.8017C102.744 17.5971 102.46 17.3062 102.259 16.9289C102.059 16.5516 101.958 16.1038 101.958 15.5856L101.958 15.579L109.364 15.5788V14.781C109.364 13.89 109.234 13.1115 108.975 12.4455C108.715 11.7796 108.353 11.2261 107.888 10.7852C107.423 10.3442 106.88 10.0135 106.259 9.79304C105.639 9.57256 104.97 9.46233 104.252 9.46233C103.186 9.46233 102.257 9.68962 101.466 10.1442C100.676 10.5988 100.063 11.2329 99.629 12.0466C99.1947 12.8603 98.9776 13.8059 98.9776 14.8833C98.9776 15.9879 99.1947 16.9437 99.629 17.7505C100.063 18.5574 100.683 19.1802 101.488 19.6189C102.292 20.0576 103.254 20.2769 104.373 20.2769ZM102.263 12.7456C102.091 13.0391 101.992 13.3608 101.965 13.7106L101.961 13.7788L106.525 13.7786C106.525 13.3604 106.431 12.9899 106.242 12.6672C106.053 12.3444 105.792 12.091 105.459 11.9069C105.127 11.7228 104.741 11.6307 104.302 11.6307C103.844 11.6307 103.439 11.7318 103.088 11.9341C102.736 12.1364 102.461 12.4069 102.263 12.7456ZM116.247 20.2769C117.347 20.2769 118.297 20.0507 119.097 19.5984C119.897 19.1461 120.514 18.5143 120.949 17.7028C121.383 16.8914 121.6 15.9493 121.6 14.8764C121.6 13.7945 121.383 12.8478 120.949 12.0364C120.514 11.225 119.897 10.5931 119.097 10.1408C118.297 9.68848 117.347 9.46233 116.247 9.46233C115.148 9.46233 114.198 9.68848 113.398 10.1408C112.598 10.5931 111.98 11.225 111.546 12.0364C111.112 12.8478 110.895 13.7945 110.895 14.8764C110.895 15.9493 111.112 16.8914 111.546 17.7028C111.98 18.5143 112.598 19.1461 113.398 19.5984C114.198 20.0507 115.148 20.2769 116.247 20.2769ZM114.991 17.6142C115.333 17.8892 115.757 18.0267 116.262 18.0267C116.762 18.0267 117.18 17.8892 117.515 17.6142C117.85 17.3391 118.104 16.963 118.276 16.4857C118.448 16.0084 118.534 15.4651 118.534 14.856C118.534 14.2468 118.448 13.7036 118.276 13.2263C118.104 12.749 117.85 12.3717 117.515 12.0944C117.18 11.8171 116.762 11.6784 116.262 11.6784C115.757 11.6784 115.333 11.8171 114.991 12.0944C114.648 12.3717 114.391 12.749 114.219 13.2263C114.047 13.7036 113.961 14.2468 113.961 14.856C113.961 15.4651 114.047 16.0084 114.219 16.4857C114.391 16.963 114.648 17.3391 114.991 17.6142Z" fill="#0B0F17"/>
</svg>
