<svg width="14" height="14" viewBox="0 0 14 14" fill="none" xmlns="http://www.w3.org/2000/svg">
<path d="M9.27787 13.8153C8.91956 13.8792 8.78732 13.6574 8.78732 13.474C8.78732 13.2437 8.79585 12.0663 8.79585 11.1151C8.79585 10.4496 8.57404 10.0273 8.31383 9.80551C9.89213 9.63062 11.5558 9.41307 11.5558 6.68729C11.5558 5.91094 11.2785 5.52276 10.8263 5.02367C10.8988 4.84025 11.142 4.08522 10.7538 3.10411C10.1609 2.92069 8.80438 3.86767 8.80438 3.86767C8.24131 3.70984 7.63132 3.62879 7.02986 3.62879C6.42839 3.62879 5.8184 3.70984 5.25533 3.86767C5.25533 3.86767 3.89884 2.92069 3.30591 3.10411C2.91773 4.08096 3.15661 4.83598 3.23339 5.02367C2.78123 5.52276 2.56795 5.91094 2.56795 6.68729C2.56795 9.40027 4.15905 9.63062 5.73735 9.80551C5.5326 9.98894 5.34917 10.3046 5.28519 10.7568C4.87995 10.9402 3.84339 11.2558 3.22486 10.1638C2.83668 9.48985 2.13711 9.4344 2.13711 9.4344C1.44607 9.42587 2.09019 9.8695 2.09019 9.8695C2.55088 10.0828 2.87507 10.9018 2.87507 10.9018C3.28885 12.1687 5.26813 11.7421 5.26813 11.7421C5.26813 12.3351 5.27666 13.2991 5.27666 13.474C5.27666 13.6574 5.14869 13.8792 4.7861 13.8153C1.97075 12.8725 0 10.1937 0 7.06267C0 3.14677 2.99451 0.173584 6.91042 0.173584C10.8263 0.173584 14 3.14677 14 7.06267C14.0043 10.1937 12.0932 12.8768 9.27787 13.8153ZM5.09323 11.2089C5.01219 11.226 4.9354 11.1919 4.92687 11.1364C4.91834 11.0724 4.97379 11.017 5.05484 10.9999C5.13589 10.9914 5.21267 11.0255 5.2212 11.081C5.234 11.1364 5.17855 11.1919 5.09323 11.2089ZM4.68799 11.1705C4.68799 11.226 4.62401 11.2729 4.53869 11.2729C4.44485 11.2814 4.38086 11.2345 4.38086 11.1705C4.38086 11.1151 4.44485 11.0682 4.53016 11.0682C4.61121 11.0596 4.68799 11.1065 4.68799 11.1705ZM4.10359 11.1236C4.08653 11.1791 4.00122 11.2047 3.9287 11.1791C3.84765 11.162 3.7922 11.098 3.80926 11.0426C3.82632 10.9871 3.91164 10.9615 3.98415 10.9786C4.06947 11.0042 4.12492 11.0682 4.10359 11.1236ZM3.57891 10.8933C3.54052 10.9402 3.45947 10.9317 3.39549 10.8677C3.3315 10.8122 3.31444 10.7312 3.3571 10.6928C3.39549 10.6459 3.47654 10.6544 3.54052 10.7184C3.59598 10.7738 3.6173 10.8591 3.57891 10.8933ZM3.19074 10.5051C3.15234 10.5307 3.07983 10.5051 3.0329 10.4411C2.98598 10.3771 2.98598 10.3046 3.0329 10.2747C3.07983 10.2363 3.15234 10.2662 3.19074 10.3302C3.23766 10.3942 3.23766 10.471 3.19074 10.5051ZM2.91347 10.0913C2.87507 10.1297 2.81109 10.1084 2.76417 10.0657C2.71724 10.0103 2.70871 9.94628 2.7471 9.91642C2.7855 9.87803 2.84948 9.89936 2.8964 9.94201C2.94333 9.99747 2.95186 10.0615 2.91347 10.0913ZM2.62766 9.77565C2.6106 9.81404 2.55515 9.82257 2.50823 9.79271C2.45277 9.76712 2.42718 9.7202 2.44424 9.68181C2.4613 9.65621 2.50823 9.64341 2.56368 9.66474C2.61913 9.6946 2.64473 9.74153 2.62766 9.77565Z" fill="white"/>
</svg>
