<svg width="40" height="36" viewBox="0 0 40 36" fill="none" xmlns="http://www.w3.org/2000/svg">
<path d="M39.9807 8.65034C39.8027 12.5516 37.083 17.8936 31.823 24.6736C26.3846 31.7561 21.7833 35.2969 18.0193 35.2969C15.6885 35.2969 13.7145 33.1409 12.1033 28.8273C11.0265 24.8732 9.95086 20.9196 8.87446 16.9656C7.67725 12.6544 6.39364 10.496 5.02123 10.496C4.72203 10.496 3.67482 11.1268 1.88201 12.3836L0 9.95435C1.97401 8.21634 3.92163 6.47873 5.83764 4.73872C8.47046 2.4591 10.4469 1.26029 11.7641 1.13909C14.8773 0.83949 16.7933 2.9715 17.5125 7.53553C18.2897 12.4596 18.8273 15.5224 19.1297 16.7212C20.0269 20.8064 21.0141 22.8464 22.0929 22.8464C22.9301 22.8464 24.1878 21.5216 25.8646 18.872C27.5398 16.2216 28.437 14.2052 28.5582 12.82C28.7966 10.5328 27.899 9.38635 25.8646 9.38635C24.907 9.38635 23.9198 9.60715 22.9041 10.0436C24.8698 3.59191 28.6258 0.458687 34.1698 0.637488C38.2799 0.758289 40.2175 3.42911 39.9807 8.65034Z" fill="#32B8E8"/>
</svg>
